<svg id="visual" viewBox="0 0 2000 1080" width="2000" height="1080" xmlns="http://www.w3.org/2000/svg" xmlns:xlink="http://www.w3.org/1999/xlink" version="1.1"><path d="M0 805L41.7 784.7C83.3 764.3 166.7 723.7 250 698.8C333.3 674 416.7 665 500 681.8C583.3 698.7 666.7 741.3 750 763.7C833.3 786 916.7 788 1000 789.5C1083.3 791 1166.7 792 1250 781.2C1333.3 770.3 1416.7 747.7 1500 725.7C1583.3 703.7 1666.7 682.3 1750 690.2C1833.3 698 1916.7 735 1958.3 753.5L2000 772L2000 1081L1958.3 1081C1916.7 1081 1833.3 1081 1750 1081C1666.7 1081 1583.3 1081 1500 1081C1416.7 1081 1333.3 1081 1250 1081C1166.7 1081 1083.3 1081 1000 1081C916.7 1081 833.3 1081 750 1081C666.7 1081 583.3 1081 500 1081C416.7 1081 333.3 1081 250 1081C166.7 1081 83.3 1081 41.7 1081L0 1081Z" fill="#003f69"></path><path d="M0 863L41.7 840.2C83.3 817.3 166.7 771.7 250 764.3C333.3 757 416.7 788 500 807.2C583.3 826.3 666.7 833.7 750 816.3C833.3 799 916.7 757 1000 746.3C1083.3 735.7 1166.7 756.3 1250 774.7C1333.3 793 1416.7 809 1500 822C1583.3 835 1666.7 845 1750 830.2C1833.3 815.3 1916.7 775.7 1958.3 755.8L2000 736L2000 1081L1958.3 1081C1916.7 1081 1833.3 1081 1750 1081C1666.7 1081 1583.3 1081 1500 1081C1416.7 1081 1333.3 1081 1250 1081C1166.7 1081 1083.3 1081 1000 1081C916.7 1081 833.3 1081 750 1081C666.7 1081 583.3 1081 500 1081C416.7 1081 333.3 1081 250 1081C166.7 1081 83.3 1081 41.7 1081L0 1081Z" fill="#015a7d"></path><path d="M0 872L41.7 870.5C83.3 869 166.7 866 250 866.8C333.3 867.7 416.7 872.3 500 864.8C583.3 857.3 666.7 837.7 750 829.2C833.3 820.7 916.7 823.3 1000 838C1083.3 852.7 1166.7 879.3 1250 891.5C1333.3 903.7 1416.7 901.3 1500 885.2C1583.3 869 1666.7 839 1750 836.7C1833.3 834.3 1916.7 859.7 1958.3 872.3L2000 885L2000 1081L1958.3 1081C1916.7 1081 1833.3 1081 1750 1081C1666.7 1081 1583.3 1081 1500 1081C1416.7 1081 1333.3 1081 1250 1081C1166.7 1081 1083.3 1081 1000 1081C916.7 1081 833.3 1081 750 1081C666.7 1081 583.3 1081 500 1081C416.7 1081 333.3 1081 250 1081C166.7 1081 83.3 1081 41.7 1081L0 1081Z" fill="#106b87"></path><path d="M0 953L41.7 948.3C83.3 943.7 166.7 934.3 250 932.3C333.3 930.3 416.7 935.7 500 933.5C583.3 931.3 666.7 921.7 750 918C833.3 914.3 916.7 916.7 1000 921.3C1083.3 926 1166.7 933 1250 936.3C1333.3 939.7 1416.7 939.3 1500 936.7C1583.3 934 1666.7 929 1750 917.3C1833.3 905.7 1916.7 887.3 1958.3 878.2L2000 869L2000 1081L1958.3 1081C1916.7 1081 1833.3 1081 1750 1081C1666.7 1081 1583.3 1081 1500 1081C1416.7 1081 1333.3 1081 1250 1081C1166.7 1081 1083.3 1081 1000 1081C916.7 1081 833.3 1081 750 1081C666.7 1081 583.3 1081 500 1081C416.7 1081 333.3 1081 250 1081C166.7 1081 83.3 1081 41.7 1081L0 1081Z" fill="#015a7d"></path><path d="M0 1018L41.7 1008C83.3 998 166.7 978 250 976.7C333.3 975.3 416.7 992.7 500 1003.2C583.3 1013.7 666.7 1017.3 750 1009.8C833.3 1002.3 916.7 983.7 1000 978.3C1083.3 973 1166.7 981 1250 985C1333.3 989 1416.7 989 1500 989.3C1583.3 989.7 1666.7 990.3 1750 990.5C1833.3 990.7 1916.7 990.3 1958.3 990.2L2000 990L2000 1081L1958.3 1081C1916.7 1081 1833.3 1081 1750 1081C1666.7 1081 1583.3 1081 1500 1081C1416.7 1081 1333.3 1081 1250 1081C1166.7 1081 1083.3 1081 1000 1081C916.7 1081 833.3 1081 750 1081C666.7 1081 583.3 1081 500 1081C416.7 1081 333.3 1081 250 1081C166.7 1081 83.3 1081 41.7 1081L0 1081Z" fill="#003f69"></path></svg>