<svg width="372" height="210" viewBox="0 0 372 210" fill="none" xmlns="http://www.w3.org/2000/svg">
<path fill-rule="evenodd" clip-rule="evenodd" d="M134.747 48.2861C134.747 33.912 141.507 22.947 151.745 15.4186C162.025 7.8585 175.819 3.77362 189.694 3.36166C203.571 2.94961 217.346 6.21694 227.599 13.1437C237.794 20.032 244.542 30.5478 244.542 44.8956L244.542 44.9263C244.533 45.3853 244.713 45.8458 245.077 46.1817C245.752 46.8049 246.804 46.7628 247.427 46.0877C257.139 35.5668 267.956 31.0145 278.165 30.7667C288.397 30.5183 298.178 34.5904 305.797 41.6082C320.849 55.471 327.414 80.8128 311.836 106.481C305.993 114.385 297.68 118.852 288.144 117.111H282.373C279.119 117.111 276.482 114.473 276.482 111.22V70.2569C276.437 70.2097 276.393 70.1623 276.348 70.1147V56.2716C276.348 55.3529 275.603 54.6081 274.685 54.6081C273.766 54.6081 273.021 55.3529 273.021 56.2716V65.4535C272.953 65.3268 272.887 65.1996 272.822 65.0718V115.593C272.822 118.846 275.459 121.483 278.712 121.483H292.702C298.013 121.483 302.679 120.057 306.698 117.206C309.677 115.092 312.156 112.386 314.136 109.089C314.143 109.078 314.151 109.067 314.158 109.056C331.213 81.7666 324.449 54.2641 308.052 39.1609C299.867 31.6227 289.27 27.1691 278.084 27.4406C267.859 27.6888 257.274 31.8821 247.713 41.0462C246.597 27.4209 239.548 17.2015 229.461 10.3869C218.503 2.98335 203.998 -0.391623 189.595 0.0360313C175.189 0.463773 160.703 4.70059 149.773 12.7382C141.126 19.0974 134.71 27.8411 132.379 38.8819C129.968 34.5147 125.894 31.1604 120.977 28.8431C113.006 25.0869 102.626 23.9245 92.691 25.407C82.7565 26.8894 73.0436 31.0515 66.5378 38.1973C60.8619 44.4316 57.74 52.8183 58.9289 63.3195V118.654C58.9289 120.216 60.1953 121.482 61.7574 121.482C63.3196 121.482 64.5859 120.216 64.5859 118.654V94.5326C64.5859 92.6951 66.0755 91.2055 67.913 91.2055H88.5467C90.013 91.2055 91.2017 90.0168 91.2017 88.5504C91.2017 87.0841 90.013 85.8954 88.5467 85.8954H67.913C66.0755 85.8954 64.5859 84.4103 64.5859 82.5728V61.5942C64.5859 49.1205 67.1915 42.3169 80.186 32.4835C84.209 30.6376 88.6374 29.3758 93.182 28.6976C102.6 27.2924 112.293 28.4291 119.558 31.8528C126.793 35.2625 131.42 40.8075 131.42 48.286C131.42 48.8603 131.711 49.3666 132.154 49.6656C132.382 49.8197 132.65 49.9187 132.94 49.9435C132.987 49.9476 133.035 49.9497 133.084 49.9497C134.003 49.9497 134.747 49.2049 134.747 48.2861ZM231.765 121.735C225.741 121.735 220.276 120.338 215.37 117.543C210.525 114.686 206.675 110.804 203.818 105.898C201.023 100.93 199.626 95.4333 199.626 89.409V87.639C199.626 81.5527 201.023 76.0252 203.818 71.0568C206.613 66.0262 210.432 62.0825 215.276 59.2256C220.121 56.3688 225.493 54.9403 231.393 54.9403C237.355 54.9403 242.758 56.3688 247.602 59.2256C252.447 62.0825 256.266 66.0262 259.061 71.0568C261.856 76.0252 263.253 81.5527 263.253 87.639V89.409C263.253 95.5575 261.887 101.085 259.154 105.991C256.421 110.898 252.664 114.748 247.882 117.543C243.1 120.338 237.728 121.735 231.765 121.735ZM231.486 116.518C236.392 116.518 240.833 115.338 244.808 112.978C248.782 110.618 251.919 107.389 254.217 103.29C256.515 99.1286 257.664 94.5017 257.664 89.409V87.639C257.664 82.4842 256.484 77.8263 254.124 73.6652C251.826 69.442 248.658 66.1504 244.621 63.7904C240.647 61.3683 236.206 60.1572 231.3 60.1572C226.455 60.1572 222.046 61.3683 218.071 63.7904C214.096 66.2125 210.96 69.5352 208.662 73.7584C206.364 77.9195 205.215 82.5463 205.215 87.639V89.409C205.215 94.5017 206.364 99.1286 208.662 103.29C210.96 107.389 214.096 110.618 218.071 112.978C222.108 115.338 226.58 116.518 231.486 116.518ZM161.67 123.066C155.646 123.066 150.18 121.669 145.274 118.874C140.43 116.017 136.579 112.135 133.722 107.229C130.927 102.261 129.53 96.7643 129.53 90.7401V88.97C129.53 82.8837 130.927 77.3563 133.722 72.3878C136.517 67.3572 140.337 63.4135 145.181 60.5566C150.025 57.6998 155.397 56.2713 161.297 56.2713C167.259 56.2713 172.663 57.6998 177.507 60.5566C182.351 63.4135 186.171 67.3572 188.965 72.3878C191.76 77.3563 193.157 82.8837 193.157 88.97V90.7401C193.157 96.8885 191.791 102.416 189.059 107.322C186.326 112.229 182.568 116.079 177.786 118.874C173.004 121.669 167.632 123.066 161.67 123.066ZM161.39 117.849C166.297 117.849 170.737 116.669 174.712 114.309C178.687 111.949 181.823 108.72 184.121 104.621C186.419 100.46 187.568 95.8327 187.568 90.7401V88.97C187.568 83.8153 186.388 79.1573 184.028 74.9962C181.73 70.773 178.563 67.4814 174.526 65.1214C170.551 62.6993 166.11 61.4882 161.204 61.4882C156.36 61.4882 151.95 62.6993 147.976 65.1214C144.001 67.5435 140.864 70.8662 138.567 75.0894C136.269 79.2505 135.12 83.8774 135.12 88.97V90.7401C135.12 95.8327 136.269 100.46 138.567 104.621C140.864 108.72 144.001 111.949 147.976 114.309C152.012 116.669 156.484 117.849 161.39 117.849ZM99.0669 57.762C97.5234 57.762 96.2722 59.0132 96.2722 60.5567V118.155C96.2722 119.993 97.7618 121.482 99.5993 121.482H131.579C133.02 121.482 134.188 120.315 134.188 118.874C134.188 117.433 133.02 116.266 131.579 116.266H105.189C103.351 116.266 101.862 114.776 101.862 112.939V60.5567C101.862 59.0132 100.61 57.762 99.0669 57.762Z" fill="#F5F5F5"/>
<path d="M15.4393 158.698C18.1988 159.205 20.7191 159.262 23 158.867C25.309 158.445 27.2801 157.572 28.9133 156.248C30.5747 154.897 31.856 153.081 32.7571 150.8C33.6863 148.519 34.1509 145.731 34.1509 142.436C34.1509 140.156 33.9116 138.086 33.4329 136.227C32.9542 134.341 32.2361 132.75 31.2787 131.454C30.3495 130.131 29.1668 129.117 27.7307 128.413C26.2946 127.681 24.6191 127.315 22.7043 127.315C21.4935 127.315 20.4375 127.371 19.5364 127.484C18.6353 127.569 17.875 127.667 17.2555 127.78C16.5234 127.921 15.918 128.075 15.4393 128.244V158.698ZM6.52694 124.95C7.09012 125.006 7.68146 125.062 8.30096 125.119C8.83598 125.175 9.42732 125.217 10.075 125.245C10.7508 125.245 11.4407 125.245 12.1447 125.245C13.2429 125.245 14.7212 125.119 16.5797 124.865C18.4664 124.584 20.8599 124.443 23.7603 124.443C26.4635 124.443 28.9556 124.837 31.2365 125.626C33.5455 126.414 35.5448 127.569 37.2343 129.089C38.9239 130.61 40.2333 132.468 41.1625 134.665C42.1199 136.833 42.5986 139.311 42.5986 142.099C42.5986 145.844 41.8524 149.082 40.36 151.813C38.8676 154.545 36.8683 156.755 34.3621 158.445C31.856 160.134 28.9697 161.289 25.7032 161.908C22.4368 162.5 19.0155 162.528 15.4393 161.993V169.005C15.4393 171.398 15.4674 173.496 15.5237 175.298C15.6082 177.072 15.6927 178.607 15.7772 179.902C15.8898 181.197 16.0165 182.281 16.1573 183.154C16.3263 184.027 16.4952 184.759 16.6642 185.351V185.52H6.52694V185.351C6.69589 184.759 6.85077 184.027 6.99156 183.154C7.16052 182.281 7.30131 181.197 7.41395 179.902C7.52658 178.607 7.61106 177.072 7.66738 175.298C7.7237 173.496 7.75186 171.398 7.75186 169.005V141.507C7.75186 139.114 7.7237 137.03 7.66738 135.256C7.61106 133.454 7.52658 131.905 7.41395 130.61C7.30131 129.286 7.16052 128.188 6.99156 127.315C6.85077 126.442 6.69589 125.71 6.52694 125.119V124.95ZM46.1517 158.783C46.1517 156.389 46.1095 154.306 46.025 152.531C45.9687 150.729 45.8842 149.181 45.7716 147.885C45.6871 146.59 45.5604 145.506 45.3914 144.633C45.2506 143.76 45.0958 143.028 44.9268 142.436V142.268H54.6839V142.436C54.4586 143.084 54.2615 143.873 54.0926 144.802C53.9518 145.731 53.8391 146.928 53.7547 148.392C54.7965 147.519 55.8807 146.66 57.007 145.816C58.1334 144.971 59.2879 144.225 60.4706 143.577C61.6533 142.929 62.85 142.408 64.0609 142.014C65.2999 141.62 66.5389 141.423 67.7778 141.423C68.5381 141.423 69.1999 141.465 69.7631 141.549C70.3262 141.606 70.8331 141.704 71.2836 141.845C71.7342 141.958 72.1425 142.099 72.5086 142.268C72.8746 142.408 73.2266 142.549 73.5645 142.69L71.4948 150.757L70.7768 150.589C70.4389 149.35 69.8053 148.364 68.876 147.632C67.9468 146.872 66.6796 146.491 65.0746 146.491C64.2017 146.491 63.2865 146.646 62.3291 146.956C61.3717 147.266 60.4002 147.702 59.4146 148.265C58.4291 148.8 57.4435 149.434 56.4579 150.166C55.4724 150.87 54.515 151.616 53.5857 152.405C53.5294 153.221 53.5012 154.108 53.5012 155.066C53.5012 156.023 53.5012 157.037 53.5012 158.107V169.005C53.5012 171.398 53.5294 173.496 53.5857 175.298C53.642 177.072 53.7265 178.607 53.8391 179.902C53.9518 181.197 54.0785 182.281 54.2193 183.154C54.3601 184.027 54.515 184.759 54.6839 185.351V185.52H44.9268V185.351C45.0958 184.759 45.2506 184.027 45.3914 183.154C45.5604 182.281 45.6871 181.197 45.7716 179.902C45.8842 178.607 45.9687 177.072 46.025 175.298C46.1095 173.496 46.1517 171.398 46.1517 169.005V158.783ZM93.8441 186.28C90.7184 186.28 87.7899 185.787 85.0585 184.802C82.327 183.816 79.9476 182.38 77.9202 180.493C75.8927 178.579 74.2876 176.227 73.105 173.44C71.9505 170.624 71.3732 167.414 71.3732 163.809C71.3732 160.627 71.9082 157.685 72.9783 154.981C74.0483 152.25 75.5266 149.885 77.4133 147.885C79.3 145.886 81.4964 144.323 84.0025 143.197C86.5368 142.07 89.2682 141.507 92.1968 141.507C95.0972 141.507 97.7863 142.014 100.264 143.028C102.742 144.013 104.882 145.464 106.685 147.378C108.515 149.265 109.951 151.616 110.993 154.432C112.063 157.22 112.64 160.402 112.725 163.978C109.543 163.922 106.361 163.88 103.179 163.851C99.9968 163.823 96.6881 163.809 93.2527 163.809C90.8029 163.809 88.4094 163.823 86.0722 163.851C83.7632 163.88 81.6794 163.922 79.8209 163.978C79.9898 166.907 80.4404 169.554 81.1725 171.919C81.9328 174.284 82.9606 176.312 84.2559 178.001C85.5794 179.663 87.1704 180.944 89.0289 181.845C90.9155 182.746 93.0415 183.197 95.4069 183.197C97.0401 183.197 98.5748 183.014 100.011 182.648C101.475 182.253 102.799 181.718 103.981 181.042C105.164 180.367 106.22 179.578 107.149 178.677C108.078 177.748 108.867 176.748 109.515 175.678L110.021 175.932L106.896 183.45C105.375 184.239 103.559 184.914 101.447 185.478C99.3351 186.013 96.8008 186.28 93.8441 186.28ZM88.2264 160.515C91.0423 160.515 93.8582 160.515 96.6741 160.515C99.5181 160.486 102.095 160.43 104.404 160.346C104.15 157.896 103.672 155.699 102.968 153.756C102.264 151.813 101.363 150.166 100.264 148.815C99.1661 147.463 97.8708 146.421 96.3784 145.689C94.886 144.957 93.2387 144.591 91.4365 144.591C89.8033 144.591 88.2968 144.957 86.917 145.689C85.5653 146.393 84.3827 147.421 83.3689 148.772C82.3552 150.124 81.5386 151.785 80.9191 153.756C80.2996 155.699 79.9335 157.924 79.8209 160.43C81.088 160.486 82.4256 160.515 83.8336 160.515C85.2415 160.515 86.7058 160.515 88.2264 160.515ZM120.586 142.268V142.436C120.53 142.577 120.488 142.788 120.459 143.07C120.431 143.352 120.417 143.605 120.417 143.83C120.417 144.703 120.544 145.675 120.797 146.745C121.051 147.787 121.501 149.096 122.149 150.673L132.244 174.707L142.466 151.011C142.888 149.969 143.339 148.829 143.817 147.59C144.296 146.351 144.535 145.098 144.535 143.83C144.535 143.464 144.507 143.169 144.451 142.943C144.395 142.69 144.338 142.521 144.282 142.436V142.268H151.885V142.436C151.378 142.972 150.73 143.929 149.942 145.309C149.182 146.66 148.365 148.364 147.492 150.42L131.906 186.111H129.414L114.968 152.489C114.462 151.25 113.912 150.068 113.321 148.941C112.758 147.787 112.209 146.759 111.674 145.858C111.167 144.957 110.716 144.211 110.322 143.619C109.928 143 109.66 142.605 109.52 142.436V142.268H120.586ZM171.573 186.28C168.447 186.28 165.519 185.787 162.787 184.802C160.056 183.816 157.677 182.38 155.649 180.493C153.622 178.579 152.017 176.227 150.834 173.44C149.679 170.624 149.102 167.414 149.102 163.809C149.102 160.627 149.637 157.685 150.707 154.981C151.777 152.25 153.256 149.885 155.142 147.885C157.029 145.886 159.225 144.323 161.732 143.197C164.266 142.07 166.997 141.507 169.926 141.507C172.826 141.507 175.515 142.014 177.993 143.028C180.471 144.013 182.611 145.464 184.414 147.378C186.244 149.265 187.68 151.616 188.722 154.432C189.792 157.22 190.369 160.402 190.454 163.978C187.272 163.922 184.09 163.88 180.908 163.851C177.726 163.823 174.417 163.809 170.982 163.809C168.532 163.809 166.138 163.823 163.801 163.851C161.492 163.88 159.408 163.922 157.55 163.978C157.719 166.907 158.169 169.554 158.902 171.919C159.662 174.284 160.69 176.312 161.985 178.001C163.308 179.663 164.899 180.944 166.758 181.845C168.645 182.746 170.771 183.197 173.136 183.197C174.769 183.197 176.304 183.014 177.74 182.648C179.204 182.253 180.528 181.718 181.71 181.042C182.893 180.367 183.949 179.578 184.878 178.677C185.807 177.748 186.596 176.748 187.244 175.678L187.75 175.932L184.625 183.45C183.104 184.239 181.288 184.914 179.176 185.478C177.064 186.013 174.53 186.28 171.573 186.28ZM165.955 160.515C168.771 160.515 171.587 160.515 174.403 160.515C177.247 160.486 179.824 160.43 182.133 160.346C181.879 157.896 181.401 155.699 180.697 153.756C179.993 151.813 179.092 150.166 177.993 148.815C176.895 147.463 175.6 146.421 174.107 145.689C172.615 144.957 170.968 144.591 169.165 144.591C167.532 144.591 166.026 144.957 164.646 145.689C163.294 146.393 162.112 147.421 161.098 148.772C160.084 150.124 159.268 151.785 158.648 153.756C158.029 155.699 157.663 157.924 157.55 160.43C158.817 160.486 160.155 160.515 161.563 160.515C162.97 160.515 164.435 160.515 165.955 160.515ZM223.405 157.051C223.405 153.334 222.659 150.603 221.166 148.857C219.674 147.111 217.674 146.238 215.168 146.238C214.267 146.238 213.253 146.435 212.127 146.829C211.001 147.195 209.846 147.702 208.664 148.35C207.481 148.969 206.298 149.702 205.116 150.546C203.933 151.391 202.821 152.292 201.779 153.25L201.694 158.783V169.005C201.694 171.398 201.722 173.496 201.779 175.298C201.835 177.072 201.919 178.607 202.032 179.902C202.145 181.197 202.271 182.281 202.412 183.154C202.553 184.027 202.708 184.759 202.877 185.351V185.52H193.12V185.351C193.289 184.759 193.444 184.027 193.584 183.154C193.753 182.281 193.88 181.197 193.965 179.902C194.077 178.607 194.162 177.072 194.218 175.298C194.302 173.496 194.345 171.398 194.345 169.005V158.783C194.345 156.389 194.302 154.306 194.218 152.531C194.162 150.729 194.077 149.181 193.965 147.885C193.88 146.59 193.753 145.506 193.584 144.633C193.444 143.76 193.289 143.028 193.12 142.436V142.268H202.877V142.436C202.652 143.14 202.469 144.042 202.328 145.14C202.215 146.21 202.088 147.618 201.948 149.364C203.102 148.406 204.341 147.449 205.665 146.491C207.016 145.534 208.41 144.689 209.846 143.957C211.282 143.197 212.747 142.591 214.239 142.141C215.731 141.662 217.196 141.423 218.632 141.423C220.828 141.423 222.687 141.803 224.207 142.563C225.756 143.324 227.009 144.323 227.967 145.562C228.952 146.801 229.656 148.223 230.078 149.828C230.529 151.405 230.754 153.01 230.754 154.643V169.005C230.754 171.398 230.782 173.496 230.839 175.298C230.895 177.072 230.98 178.607 231.092 179.902C231.205 181.197 231.332 182.281 231.472 183.154C231.613 184.027 231.768 184.759 231.937 185.351V185.52H222.18V185.351C222.349 184.759 222.504 184.027 222.644 183.154C222.813 182.281 222.94 181.197 223.025 179.902C223.137 178.607 223.222 177.072 223.278 175.298C223.363 173.496 223.405 171.398 223.405 169.005V157.051ZM253.61 183.028C254.455 183.028 255.286 182.873 256.102 182.563C256.947 182.253 257.75 181.831 258.51 181.296C259.299 180.761 260.045 180.155 260.749 179.48C261.481 178.776 262.157 178.044 262.776 177.283L263.199 177.494L260.453 184.295C260.115 184.464 259.693 184.675 259.186 184.928C258.707 185.154 258.116 185.365 257.412 185.562C256.736 185.787 255.934 185.97 255.004 186.111C254.075 186.28 252.977 186.365 251.71 186.365C247.936 186.365 244.994 185.351 242.882 183.323C240.798 181.268 239.756 178.072 239.756 173.735V145.562L232.66 145.816V142.099C233.533 142.155 234.575 142.197 235.786 142.225C236.997 142.253 238.32 142.268 239.756 142.268C239.728 140.268 239.672 138.508 239.587 136.988C239.531 135.439 239.446 134.101 239.334 132.975C239.249 131.821 239.137 130.849 238.996 130.061C238.855 129.272 238.714 128.61 238.573 128.075V127.906H248.331V128.075C248.162 128.61 248.007 129.272 247.866 130.061C247.725 130.849 247.598 131.806 247.486 132.933C247.401 134.059 247.317 135.397 247.232 136.945C247.176 138.466 247.134 140.24 247.106 142.268C248.88 142.239 250.611 142.211 252.301 142.183C254.019 142.127 255.567 142.07 256.947 142.014C258.355 141.93 259.538 141.859 260.495 141.803C261.481 141.718 262.129 141.648 262.438 141.592L261.678 145.9C260.242 145.872 258.735 145.83 257.158 145.773C255.807 145.717 254.258 145.675 252.512 145.647C250.766 145.618 248.964 145.59 247.106 145.562V174.622C247.106 176.368 247.289 177.79 247.655 178.888C248.049 179.958 248.542 180.803 249.133 181.423C249.753 182.042 250.443 182.465 251.203 182.69C251.991 182.915 252.794 183.028 253.61 183.028ZM266.583 158.783C266.583 156.389 266.54 154.306 266.456 152.531C266.4 150.729 266.315 149.181 266.203 147.885C266.118 146.59 265.991 145.506 265.822 144.633C265.682 143.76 265.527 143.028 265.358 142.436V142.268H275.115V142.436C274.946 143.028 274.791 143.76 274.65 144.633C274.509 145.506 274.383 146.59 274.27 147.885C274.157 149.181 274.073 150.729 274.017 152.531C273.96 154.306 273.932 156.389 273.932 158.783V169.005C273.932 171.398 273.96 173.496 274.017 175.298C274.073 177.072 274.157 178.607 274.27 179.902C274.383 181.197 274.509 182.281 274.65 183.154C274.791 184.027 274.946 184.759 275.115 185.351V185.52H265.358V185.351C265.527 184.759 265.682 184.027 265.822 183.154C265.991 182.281 266.118 181.197 266.203 179.902C266.315 178.607 266.4 177.072 266.456 175.298C266.54 173.496 266.583 171.398 266.583 169.005V158.783ZM265.696 129.469C265.696 128.85 265.808 128.273 266.034 127.737C266.287 127.174 266.611 126.696 267.005 126.301C267.399 125.879 267.864 125.555 268.399 125.33C268.962 125.076 269.568 124.95 270.215 124.95C270.863 124.95 271.454 125.076 271.989 125.33C272.552 125.555 273.031 125.879 273.425 126.301C273.848 126.696 274.172 127.174 274.397 127.737C274.65 128.273 274.777 128.85 274.777 129.469C274.777 130.765 274.34 131.849 273.468 132.722C272.595 133.595 271.511 134.031 270.215 134.031C269.568 134.031 268.962 133.918 268.399 133.693C267.864 133.44 267.399 133.116 267.005 132.722C266.611 132.299 266.287 131.821 266.034 131.286C265.808 130.722 265.696 130.117 265.696 129.469ZM278.457 163.809C278.457 160.627 279.048 157.685 280.231 154.981C281.413 152.25 283.033 149.885 285.088 147.885C287.172 145.886 289.622 144.323 292.438 143.197C295.254 142.07 298.281 141.507 301.519 141.507C304.701 141.507 307.686 142.042 310.474 143.112C313.289 144.154 315.739 145.647 317.823 147.59C319.907 149.533 321.54 151.898 322.723 154.686C323.934 157.473 324.539 160.599 324.539 164.063C324.539 166.963 324.032 169.751 323.018 172.426C322.005 175.101 320.512 177.466 318.541 179.522C316.57 181.578 314.148 183.225 311.276 184.464C308.432 185.675 305.151 186.28 301.435 186.28C298.281 186.28 295.31 185.759 292.522 184.717C289.734 183.675 287.299 182.183 285.215 180.24C283.131 178.297 281.484 175.946 280.273 173.186C279.062 170.398 278.457 167.273 278.457 163.809ZM302.406 183.197C304.405 183.197 306.236 182.802 307.897 182.014C309.587 181.226 311.037 180.085 312.248 178.593C313.458 177.1 314.402 175.284 315.078 173.144C315.753 171.004 316.091 168.582 316.091 165.879C316.091 162.838 315.767 160.022 315.12 157.431C314.472 154.812 313.501 152.56 312.205 150.673C310.938 148.758 309.333 147.266 307.39 146.196C305.447 145.126 303.18 144.591 300.59 144.591C298.59 144.591 296.76 144.985 295.099 145.773C293.437 146.534 291.987 147.646 290.748 149.11C289.537 150.574 288.594 152.377 287.918 154.517C287.242 156.629 286.904 159.036 286.904 161.739C286.904 164.781 287.228 167.611 287.876 170.229C288.552 172.848 289.537 175.129 290.833 177.072C292.128 178.987 293.733 180.493 295.648 181.592C297.591 182.662 299.844 183.197 302.406 183.197ZM357.912 157.051C357.912 153.334 357.166 150.603 355.674 148.857C354.181 147.111 352.182 146.238 349.676 146.238C348.775 146.238 347.761 146.435 346.635 146.829C345.508 147.195 344.354 147.702 343.171 148.35C341.989 148.969 340.806 149.702 339.623 150.546C338.441 151.391 337.328 152.292 336.286 153.25L336.202 158.783V169.005C336.202 171.398 336.23 173.496 336.286 175.298C336.343 177.072 336.427 178.607 336.54 179.902C336.652 181.197 336.779 182.281 336.92 183.154C337.061 184.027 337.216 184.759 337.385 185.351V185.52H327.627V185.351C327.796 184.759 327.951 184.027 328.092 183.154C328.261 182.281 328.388 181.197 328.472 179.902C328.585 178.607 328.669 177.072 328.726 175.298C328.81 173.496 328.852 171.398 328.852 169.005V158.783C328.852 156.389 328.81 154.306 328.726 152.531C328.669 150.729 328.585 149.181 328.472 147.885C328.388 146.59 328.261 145.506 328.092 144.633C327.951 143.76 327.796 143.028 327.627 142.436V142.268H337.385V142.436C337.159 143.14 336.976 144.042 336.835 145.14C336.723 146.21 336.596 147.618 336.455 149.364C337.61 148.406 338.849 147.449 340.172 146.491C341.524 145.534 342.918 144.689 344.354 143.957C345.79 143.197 347.254 142.591 348.747 142.141C350.239 141.662 351.703 141.423 353.14 141.423C355.336 141.423 357.194 141.803 358.715 142.563C360.264 143.324 361.517 144.323 362.474 145.562C363.46 146.801 364.164 148.223 364.586 149.828C365.037 151.405 365.262 153.01 365.262 154.643V169.005C365.262 171.398 365.29 173.496 365.346 175.298C365.403 177.072 365.487 178.607 365.6 179.902C365.713 181.197 365.839 182.281 365.98 183.154C366.121 184.027 366.276 184.759 366.445 185.351V185.52H356.688V185.351C356.857 184.759 357.011 184.027 357.152 183.154C357.321 182.281 357.448 181.197 357.532 179.902C357.645 178.607 357.729 177.072 357.786 175.298C357.87 173.496 357.912 171.398 357.912 169.005V157.051Z" fill="#F5F5F5"/>
</svg>
